<svg width="327" height="100" viewBox="0 0 327 100" fill="none" xmlns="http://www.w3.org/2000/svg">
  <path
    d="M68.8081 63.6143V45.4658H63.1367V40.9917H68.8081V33.1777H74.1014V41.0547H82.9236V45.5288H74.1014V62.7321C74.1014 64.4335 74.4165 65.5678 75.0467 66.0719C75.6768 66.639 76.7481 66.8911 78.1975 66.8911C79.3948 66.8911 80.214 66.8281 80.7181 66.7651C81.2222 66.7021 82.1674 66.639 82.2935 66.639H82.9236V71.1762C81.0962 71.4912 78.7016 71.6803 77.0002 71.6803C71.5178 71.6173 68.8081 68.9706 68.8081 63.6143Z"
    fill="black" />
  <path
    d="M88.7225 69.1597C86.769 67.2062 85.7607 64.2444 85.7607 60.2745V41.0547H91.0541V59.7703C91.0541 62.2279 91.7472 64.1814 93.0706 65.5678C94.3939 66.9541 96.1583 67.7103 98.3639 67.7103C100.758 67.7103 102.775 66.9541 104.287 65.5047C105.8 63.9924 106.556 62.0389 106.556 59.5183V41.0547H111.849V71.3022H106.556V67.4582H105.8C103.846 70.609 100.821 72.1844 96.7255 72.1844C93.3856 72.1214 90.739 71.1762 88.7225 69.1597Z"
    fill="black" />
  <path
    d="M36.8617 70.5492C34.278 69.541 32.2615 68.0286 30.7491 66.0751C29.1738 64.0586 28.3545 61.727 28.2285 59.0174H34.404C34.8452 61.475 35.9794 63.4285 37.8069 64.8778C39.6343 66.3272 42.155 67.0834 45.3688 67.0834C48.2675 67.0834 50.6621 66.5162 52.4895 65.3189C54.317 64.1216 55.2622 62.3572 55.2622 59.9626C55.2622 57.8831 54.569 56.3077 53.1827 55.2364C51.7964 54.1021 49.5908 53.2199 46.44 52.5898L42.092 51.7076C38.122 50.8883 34.9712 49.439 32.7026 47.4855C30.4341 45.532 29.2998 43.0114 29.2998 39.9866C29.2998 37.6551 29.9299 35.5755 31.2533 33.7481C32.5136 31.9206 34.341 30.5343 36.7356 29.526C39.1302 28.5178 41.7769 28.0137 44.8016 28.0137C48.0784 28.0137 50.9772 28.6438 53.3087 29.9041C55.7033 31.1645 57.4678 32.8029 58.7281 34.8194C59.9884 36.8359 60.5555 38.9154 60.4925 41.0579H54.506C54.443 39.5455 54.0019 38.0962 53.1197 36.8359C52.2375 35.5755 51.0402 34.5673 49.5278 33.8741C48.0154 33.181 46.377 32.8029 44.5496 32.8029C41.8399 32.8029 39.6343 33.37 37.9329 34.5673C36.2315 35.7646 35.3493 37.403 35.3493 39.5455C35.3493 40.9319 35.6013 42.0662 36.1685 42.8854C36.7356 43.7676 37.6809 44.4608 38.9412 45.0909C40.2015 45.658 42.0289 46.2252 44.2345 46.6663L48.5826 47.5485C52.8676 48.4307 56.0184 49.8171 58.1609 51.7706C60.2405 53.7241 61.3117 56.3077 61.3117 59.5845C61.3117 62.2312 60.6185 64.4367 59.1692 66.3272C57.7828 68.1546 55.8294 69.604 53.3718 70.5492C50.9141 71.4945 48.2045 71.9986 45.1167 71.9986C42.218 72.1246 39.3823 71.6205 36.8617 70.5492Z"
    fill="black" />
  <path
    d="M162.515 69.9783C160.184 68.5289 158.419 66.5754 157.222 64.1178C155.962 61.6602 155.395 59.0136 155.395 56.1778C155.395 53.2791 156.025 50.6325 157.222 48.1749C158.482 45.7803 160.247 43.8268 162.515 42.3774C164.847 40.9281 167.557 40.1719 170.707 40.1719C173.795 40.1719 176.505 40.9281 178.836 42.3774C181.168 43.8268 182.932 45.7803 184.13 48.2379C185.39 50.6955 185.957 53.3421 185.957 56.1778C185.957 59.0766 185.327 61.7232 184.13 64.1808C182.869 66.5754 181.105 68.5289 178.836 69.9783C176.505 71.4276 173.795 72.1838 170.644 72.1838C167.557 72.1208 164.847 71.4276 162.515 69.9783ZM178.017 64.4959C179.656 62.2904 180.475 59.5177 180.475 56.1778C180.475 52.775 179.656 49.9393 177.954 47.7968C176.253 45.5912 173.858 44.52 170.707 44.52C167.494 44.52 165.036 45.5912 163.398 47.7968C161.759 50.0023 160.94 52.775 160.94 56.1778C160.94 59.5807 161.759 62.4164 163.461 64.5589C165.162 66.7015 167.557 67.7727 170.707 67.7727C173.921 67.7727 176.316 66.7015 178.017 64.4959Z"
    fill="black" />
  <path
    d="M199.631 64.5599C200.261 62.6694 201.332 60.8419 202.908 59.0775C204.483 57.3131 206.689 55.4856 209.587 53.5321C210.974 52.6499 211.982 52.0198 212.675 51.5786C214.629 50.3813 216.267 49.3101 217.401 48.4279C218.599 47.5456 219.544 46.5374 220.363 45.2771C221.182 44.0798 221.56 42.6304 221.56 40.992C221.56 38.4714 220.804 36.4549 219.355 34.9425C217.906 33.4301 215.763 32.6109 212.927 32.6109C211.289 32.6109 209.713 33.052 208.327 33.8713C206.941 34.6905 205.807 35.8247 204.987 37.2111C204.168 38.5974 203.79 40.1098 203.79 41.6852H198.182C198.182 39.1015 198.749 36.833 199.946 34.6905C201.143 32.6109 202.845 30.9095 205.05 29.7122C207.256 28.5149 209.903 27.8848 212.864 27.8848C217.464 27.8848 221.056 29.0821 223.514 31.3506C226.035 33.6822 227.232 36.833 227.232 40.74C227.232 43.1976 226.665 45.3401 225.467 47.1675C224.27 49.058 222.884 50.5704 221.308 51.8307C219.733 53.091 217.653 54.4774 215.196 55.9897C214.377 56.4939 213.305 57.124 212.171 57.8802C209.966 59.3926 208.327 60.7789 207.13 62.1023C205.933 63.4256 205.176 64.8119 204.861 66.2613H227.673V71.2395H198.686C198.749 68.7189 199.001 66.4503 199.631 64.5599Z"
    fill="black" />
  <path
    d="M238.386 69.3505C235.802 67.46 233.912 64.8764 232.588 61.5996C231.265 58.3228 230.635 54.5418 230.635 50.3198C230.635 45.9717 231.265 42.0647 232.588 38.6619C233.912 35.259 235.865 32.6124 238.386 30.7849C240.969 28.8945 243.994 27.9492 247.649 27.9492C251.178 27.9492 254.203 28.8945 256.723 30.7849C259.244 32.6754 261.197 35.322 262.458 38.6619C263.781 42.0017 264.411 45.9087 264.411 50.2568C264.411 54.4788 263.781 58.2597 262.458 61.5366C261.134 64.8134 259.244 67.46 256.723 69.2875C254.203 71.1779 251.178 72.1232 247.649 72.1232C244.057 72.1862 240.969 71.241 238.386 69.3505ZM255.778 62.6708C257.605 59.7091 258.488 55.6131 258.488 50.3828C258.488 44.9004 257.605 40.6154 255.778 37.5906C253.951 34.5659 251.241 33.0535 247.523 33.0535C243.805 33.0535 241.095 34.5659 239.331 37.5906C237.566 40.6154 236.684 44.9004 236.684 50.3828C236.684 55.6761 237.566 59.7721 239.331 62.6708C241.095 65.6326 243.868 67.0819 247.523 67.0819C251.241 67.0819 253.951 65.5696 255.778 62.6708Z"
    fill="black" />
  <path
    d="M238.26 69.286C235.676 67.3956 233.786 64.8119 232.462 61.5351C231.139 58.2583 230.509 54.4774 230.509 50.2553C230.509 45.9072 231.139 42.0003 232.462 38.5974C233.786 35.1946 235.739 32.5479 238.26 30.7205C240.843 28.83 243.868 27.8848 247.523 27.8848C251.052 27.8848 254.077 28.83 256.597 30.7205C259.118 32.6109 261.071 35.2576 262.332 38.5974C263.655 41.9373 264.285 45.8442 264.285 50.1923C264.285 54.4143 263.655 58.1953 262.332 61.4721C261.008 64.7489 259.118 67.3956 256.597 69.223C254.077 71.1135 251.052 72.0587 247.523 72.0587C243.931 72.1217 240.843 71.1765 238.26 69.286ZM255.652 62.6064C257.479 59.6446 258.362 55.5486 258.362 50.3183C258.362 44.836 257.479 40.5509 255.652 37.5262C253.825 34.5014 251.115 32.989 247.397 32.989C243.679 32.989 240.969 34.5014 239.205 37.5262C237.441 40.5509 236.558 44.836 236.558 50.3183C236.558 55.6116 237.441 59.7077 239.205 62.6064C240.969 65.5681 243.742 67.0175 247.397 67.0175C251.115 67.0175 253.825 65.5051 255.652 62.6064Z"
    fill="black" />
  <path
    d="M277.643 71.241C275.942 70.6108 274.43 69.7286 273.232 68.5943C269.577 65.2545 267.75 59.205 267.75 50.5088C267.75 42.1277 269.451 36.0152 272.917 32.2973C275.564 29.3986 279.03 27.9492 283.315 27.9492C286.34 27.9492 288.86 28.5164 290.877 29.6506C292.893 30.7849 294.469 32.2343 295.603 33.9987C296.674 35.7632 297.367 37.7166 297.556 39.7962H291.948C291.633 37.6536 290.688 35.9522 289.175 34.6289C287.663 33.3686 285.646 32.7384 283.063 32.7384C280.92 32.7384 279.093 33.4316 277.58 34.8809C276.068 36.3303 274.934 38.1578 274.178 40.4893C273.421 42.8209 273.043 45.2785 273.043 47.9252V48.8704H273.8C274.556 47.421 275.879 46.1607 277.833 45.0895C279.786 43.9552 281.865 43.388 284.008 43.388C287.222 43.388 289.932 44.0182 292.011 45.3415C294.091 46.6649 295.666 48.3663 296.674 50.5088C297.682 52.6514 298.187 54.9829 298.187 57.5666C298.187 59.8981 297.682 62.2297 296.674 64.4353C295.666 66.6408 294.028 68.5313 291.759 69.9807C289.49 71.43 286.655 72.1862 283.189 72.1862C281.172 72.1862 279.345 71.8711 277.643 71.241ZM290.058 64.8764C291.57 63.1119 292.389 60.7174 292.389 57.5666C292.389 54.5418 291.633 52.1472 290.058 50.4458C288.545 48.7444 286.214 47.8622 283.126 47.8622C280.479 47.8622 278.274 48.7444 276.572 50.5718C274.871 52.3993 273.989 54.7309 273.989 57.5666C273.989 59.457 274.43 61.0954 275.249 62.6708C276.068 64.1832 277.202 65.3805 278.589 66.1997C279.975 67.0819 281.487 67.46 283.063 67.46C286.214 67.46 288.545 66.6408 290.058 64.8764Z"
    fill="black" />
  <path
    d="M121.048 70.1075C118.969 68.7211 117.393 66.8307 116.259 64.4361C115.125 62.0415 114.558 59.2688 114.558 56.181C114.558 52.9042 115.125 50.0055 116.322 47.6109C117.519 45.2163 119.158 43.3889 121.3 42.1285C123.443 40.8682 125.837 40.2381 128.484 40.2381C130.375 40.2381 132.139 40.6792 133.777 41.4984C135.416 42.3176 136.613 43.4519 137.369 44.8382H138.062V28.3281H143.356V71.3048H138.062V67.2718H137.369C136.172 68.9102 134.849 70.1705 133.399 70.9897C131.95 71.8089 130.185 72.187 128.169 72.187C125.459 72.124 123.128 71.4308 121.048 70.1075ZM135.92 64.5621C137.495 62.4196 138.315 59.5839 138.315 56.181C138.315 52.7782 137.495 49.9425 135.92 47.8C134.345 45.6574 131.95 44.5862 128.862 44.5862C126.152 44.5862 124.01 45.7204 122.498 47.926C120.922 50.1315 120.166 52.9042 120.166 56.181C120.166 59.4578 120.922 62.2305 122.498 64.4991C124.073 66.7046 126.152 67.8389 128.862 67.8389C131.95 67.7759 134.345 66.7046 135.92 64.5621Z"
    fill="black" />
  <path d="M146.947 28.3281H152.619V33.9995H146.947V28.3281ZM147.199 41.0573H152.43V71.3048H147.199V41.0573Z"
    fill="black" />
</svg>